<svg width="20" height="21" viewBox="0 0 20 21" fill="none" xmlns="http://www.w3.org/2000/svg">
<path d="M6.66699 2.16666V4.66666" stroke="#5E5E5E" stroke-miterlimit="10" stroke-linecap="round" stroke-linejoin="round"/>
<path d="M13.333 2.16666V4.66666" stroke="#5E5E5E" stroke-miterlimit="10" stroke-linecap="round" stroke-linejoin="round"/>
<path d="M2.91699 8.075H17.0837" stroke="#5E5E5E" stroke-miterlimit="10" stroke-linecap="round" stroke-linejoin="round"/>
<path d="M18.3337 16.3333C18.3337 16.9583 18.1587 17.55 17.8503 18.05C17.2753 19.0167 16.217 19.6667 15.0003 19.6667C14.1587 19.6667 13.392 19.3583 12.8087 18.8333C12.5503 18.6167 12.3253 18.35 12.1503 18.05C11.842 17.55 11.667 16.9583 11.667 16.3333C11.667 14.4917 13.1587 13 15.0003 13C16.0003 13 16.892 13.4417 17.5003 14.1333C18.017 14.725 18.3337 15.4917 18.3337 16.3333Z" stroke="#5E5E5E" stroke-miterlimit="10" stroke-linecap="round" stroke-linejoin="round"/>
<path d="M13.7002 16.3333L14.5252 17.1583L16.3002 15.5167" stroke="#5E5E5E" stroke-linecap="round" stroke-linejoin="round"/>
<path d="M17.5 7.58333V14.1333C16.8917 13.4417 16 13 15 13C13.1583 13 11.6667 14.4917 11.6667 16.3333C11.6667 16.9583 11.8417 17.55 12.15 18.05C12.325 18.35 12.55 18.6167 12.8083 18.8333H6.66667C3.75 18.8333 2.5 17.1667 2.5 14.6667V7.58333C2.5 5.08333 3.75 3.41666 6.66667 3.41666H13.3333C16.25 3.41666 17.5 5.08333 17.5 7.58333Z" stroke="#5E5E5E" stroke-miterlimit="10" stroke-linecap="round" stroke-linejoin="round"/>
<path d="M9.99607 11.9167H10.0036" stroke="#5E5E5E" stroke-width="1.5" stroke-linecap="round" stroke-linejoin="round"/>
<path d="M6.91209 11.9167H6.91957" stroke="#5E5E5E" stroke-width="1.5" stroke-linecap="round" stroke-linejoin="round"/>
<path d="M6.91209 14.4167H6.91957" stroke="#5E5E5E" stroke-width="1.5" stroke-linecap="round" stroke-linejoin="round"/>
</svg>
