<svg width="21" height="20" viewBox="0 0 21 20" fill="none" xmlns="http://www.w3.org/2000/svg">
<path fill-rule="evenodd" clip-rule="evenodd" d="M10.5 1.875C6.0125 1.875 2.375 5.5125 2.375 10C2.375 14.4875 6.0125 18.125 10.5 18.125C14.9875 18.125 18.625 14.4875 18.625 10C18.625 5.5125 14.9875 1.875 10.5 1.875ZM11.125 5C11.125 4.83424 11.0592 4.67527 10.9419 4.55806C10.8247 4.44085 10.6658 4.375 10.5 4.375C10.3342 4.375 10.1753 4.44085 10.0581 4.55806C9.94085 4.67527 9.875 4.83424 9.875 5V10C9.875 10.345 10.155 10.625 10.5 10.625H14.25C14.4158 10.625 14.5747 10.5592 14.6919 10.4419C14.8092 10.3247 14.875 10.1658 14.875 10C14.875 9.83424 14.8092 9.67527 14.6919 9.55806C14.5747 9.44085 14.4158 9.375 14.25 9.375H11.125V5Z" fill="#132235"/>
</svg>
