<svg width="24" height="24" viewBox="0 0 24 24" fill="none" xmlns="http://www.w3.org/2000/svg">
<path fill-rule="evenodd" clip-rule="evenodd" d="M4.63703 20.1665L3.82397 6.75092L3.73383 5.06621C3.72465 4.89447 3.86143 4.75018 4.03341 4.75018H19.994C20.168 4.75018 20.3055 4.89769 20.2933 5.07124L20.1751 6.75092L19.362 20.1665C19.274 21.618 18.0712 22.7502 16.6171 22.7502H7.382C5.92783 22.7502 4.725 21.618 4.63703 20.1665ZM8.74916 16.5002C8.74916 16.9144 9.08495 17.2502 9.49916 17.2502C9.91337 17.2502 10.2491 16.9144 10.2491 16.5002V10.5002C10.2491 10.086 9.91337 9.75018 9.49916 9.75018C9.08495 9.75018 8.74916 10.086 8.74916 10.5002V16.5002ZM14.4991 9.75018C14.9133 9.75018 15.2491 10.086 15.2491 10.5002V16.5002C15.2491 16.9144 14.9133 17.2502 14.4991 17.2502C14.0849 17.2502 13.7491 16.9144 13.7491 16.5002V10.5002C13.7491 10.086 14.0849 9.75018 14.4991 9.75018Z" fill="black"/>
<path fill-rule="evenodd" clip-rule="evenodd" d="M8.31916 2.46283C8.63431 1.72747 9.35739 1.25067 10.1575 1.25067H13.8387C14.6387 1.25067 15.3618 1.72747 15.677 2.46283L16.6573 4.75031H19.2243C19.2907 4.75031 19.3527 4.75031 19.4106 4.75067H19.4641C19.4861 4.7497 19.5083 4.74969 19.5307 4.75067H20.9981C21.5504 4.75067 21.9981 5.19839 21.9981 5.75067C21.9981 6.30296 21.5504 6.75067 20.9981 6.75067H2.99805C2.44577 6.75067 1.99805 6.30296 1.99805 5.75067C1.99805 5.19839 2.44577 4.75067 2.99805 4.75067H4.46544C4.48783 4.74969 4.51005 4.7497 4.53204 4.75067H4.58506C4.64297 4.75031 4.70494 4.75031 4.7713 4.75031H7.33881L8.31916 2.46283ZM13.8907 3.37189L14.4814 4.75031H9.51477L10.1056 3.37189C10.1371 3.29835 10.2094 3.25067 10.2894 3.25067H13.7068C13.7868 3.25067 13.8591 3.29835 13.8907 3.37189Z" fill="black"/>
</svg>
