<svg width="40" height="40" viewBox="0 0 40 40" fill="none" xmlns="http://www.w3.org/2000/svg">
<path d="M20 24.9219C20.6838 24.9219 21.3398 25.1933 21.8232 25.6768C22.3067 26.1602 22.5781 26.8162 22.5781 27.5C22.5781 27.9461 22.4618 28.3832 22.2432 28.7695L22.1436 28.9326C21.8957 29.3035 21.5566 29.603 21.1602 29.8027L20.9863 29.8818C20.5153 30.0769 19.9971 30.1278 19.4971 30.0283C19.0595 29.9413 18.6527 29.743 18.3164 29.4531L18.1768 29.3232C17.8613 29.0078 17.6342 28.6164 17.5156 28.1885L17.4717 28.0029C17.3847 27.5654 17.4127 27.114 17.5518 26.6924L17.6182 26.5137C17.8133 26.0427 18.1435 25.6397 18.5674 25.3564C18.9914 25.0732 19.4901 24.9219 20 24.9219ZM20 17.4219C20.5983 17.4219 21.175 17.63 21.6338 18.0059L21.8232 18.1768C22.3067 18.6603 22.5781 19.3162 22.5781 20C22.5781 20.4461 22.4618 20.8832 22.2432 21.2695L22.1436 21.4326C21.8957 21.8035 21.5566 22.103 21.1602 22.3027L20.9863 22.3818C20.5153 22.5769 19.9971 22.6278 19.4971 22.5283C19.0595 22.4413 18.6527 22.243 18.3164 21.9531L18.1768 21.8232C17.8162 21.4627 17.5712 21.003 17.4717 20.5029C17.3847 20.0654 17.4127 19.614 17.5518 19.1924L17.6182 19.0137C17.8133 18.5427 18.1435 18.1397 18.5674 17.8564C18.9914 17.5732 19.4901 17.4219 20 17.4219ZM19.0137 10.1182C19.4847 9.92311 20.0029 9.87222 20.5029 9.97168C20.9405 10.0587 21.3473 10.257 21.6836 10.5469L21.8232 10.6768C22.1387 10.9922 22.3658 11.3836 22.4844 11.8115L22.5283 11.9971C22.6278 12.4971 22.5769 13.0153 22.3818 13.4863C22.2111 13.8986 21.9369 14.2589 21.5869 14.5322L21.4326 14.6436C21.0086 14.9268 20.5099 15.0781 20 15.0781C19.4017 15.0781 18.825 14.87 18.3662 14.4941L18.1768 14.3232C17.6933 13.8398 17.4219 13.1838 17.4219 12.5C17.4219 12.0539 17.5382 11.6168 17.7568 11.2305L17.8564 11.0674C18.1043 10.6965 18.4434 10.397 18.8398 10.1973L19.0137 10.1182Z" fill="#CBD5E1" stroke="#CBD5E1" stroke-width="0.09375"/>
</svg>
