<svg width="25" height="24" viewBox="0 0 25 24" fill="none" xmlns="http://www.w3.org/2000/svg">
<path fill-rule="evenodd" clip-rule="evenodd" d="M16.8998 11.2C15.2027 11.2 14.3542 11.2 13.827 10.6728C13.2998 10.1456 13.2998 9.29706 13.2998 7.6C13.2998 5.90294 13.2998 5.05442 13.827 4.52721C14.3542 4 15.2027 4 16.8998 4C18.5969 4 19.4454 4 19.9726 4.52721C20.4998 5.05442 20.4998 5.90294 20.4998 7.6C20.4998 9.29706 20.4998 10.1456 19.9726 10.6728C19.4454 11.2 18.5969 11.2 16.8998 11.2ZM17.4998 6C17.4998 5.66863 17.2312 5.4 16.8998 5.4C16.5684 5.4 16.2998 5.66863 16.2998 6V7H15.2998C14.9684 7 14.6998 7.26863 14.6998 7.6C14.6998 7.93137 14.9684 8.2 15.2998 8.2H16.2998V9.2C16.2998 9.53137 16.5684 9.8 16.8998 9.8C17.2312 9.8 17.4998 9.53137 17.4998 9.2V8.2H18.4998C18.8312 8.2 19.0998 7.93137 19.0998 7.6C19.0998 7.26863 18.8312 7 18.4998 7H17.4998V6Z" fill="#010B21"/>
<path opacity="0.6" d="M20.4998 12.5583C20.4986 13.7339 20.4897 14.7332 20.4229 15.5531C20.3453 16.5046 20.1865 17.2997 19.8309 17.96C19.6741 18.2512 19.4813 18.512 19.2467 18.7467C18.5808 19.4126 17.7324 19.7142 16.6572 19.8588C15.6068 20 14.2606 20 12.5427 20H12.4573C10.7394 20 9.39317 20 8.34276 19.8588C7.26761 19.7142 6.41922 19.4126 5.75331 18.7467C5.16296 18.1563 4.8581 17.4216 4.69598 16.5101C4.53673 15.6147 4.50759 14.5007 4.50154 13.1174C4.5 12.7655 4.5 12.3934 4.5 12.0007V11.9573C4.49999 10.2394 4.49998 8.89317 4.64121 7.84276C4.78576 6.76761 5.08741 5.91922 5.75331 5.25331C6.41922 4.58741 7.26761 4.28576 8.34276 4.14121C9.27689 4.01562 10.4788 4.00172 11.9416 4.00019C12.2499 3.99987 12.5 4.24989 12.5 4.55814C12.5 4.86639 12.2498 5.11616 11.9415 5.11648C10.458 5.11805 9.35401 5.13157 8.4915 5.24753C7.54013 5.37544 6.96657 5.61871 6.54264 6.04264C6.11871 6.46657 5.87544 7.04013 5.74753 7.9915C5.61747 8.95893 5.61628 10.2302 5.61628 12C5.61628 12.2161 5.61628 12.4252 5.61653 12.6275L6.36157 11.9756C7.03972 11.3823 8.0618 11.4163 8.69898 12.0535L11.8913 15.2458C12.4028 15.7573 13.2078 15.827 13.7996 15.4111L14.0215 15.2552C14.873 14.6567 16.0251 14.7261 16.7987 15.4223L18.9051 17.3181C19.1171 16.8728 19.243 16.2878 19.3103 15.4625C19.3736 14.6849 19.3823 13.7404 19.3835 12.5583C19.3838 12.2501 19.6336 12 19.9419 12C20.2501 12 20.5001 12.25 20.4998 12.5583Z" fill="#010B21"/>
</svg>
