<svg width="20" height="21" viewBox="0 0 20 21" fill="none" xmlns="http://www.w3.org/2000/svg">
<path fill-rule="evenodd" clip-rule="evenodd" d="M6.25 4.875C6.25 4.21196 6.51339 3.57607 6.98223 3.10723C7.45107 2.63839 8.08696 2.375 8.75 2.375H11.25C11.913 2.375 12.5489 2.63839 13.0178 3.10723C13.4866 3.57607 13.75 4.21196 13.75 4.875V5.04583C14.5275 5.11667 15.2975 5.21 16.0617 5.32417C17.2733 5.50583 18.125 6.56 18.125 7.755V10.2825C18.125 11.2917 17.5133 12.2425 16.5117 12.5758C14.4115 13.2729 12.2128 13.6272 10 13.625C7.725 13.625 5.53583 13.2567 3.48833 12.5758C2.48667 12.2425 1.875 11.2917 1.875 10.2825V7.755C1.875 6.56 2.72667 5.505 3.93833 5.32417C4.70608 5.20935 5.47695 5.11653 6.25 5.04583V4.875ZM12.5 4.875V4.95C10.8349 4.84887 9.16513 4.84887 7.5 4.95V4.875C7.5 4.54348 7.6317 4.22554 7.86612 3.99112C8.10054 3.7567 8.41848 3.625 8.75 3.625H11.25C11.5815 3.625 11.8995 3.7567 12.1339 3.99112C12.3683 4.22554 12.5 4.54348 12.5 4.875ZM10 11.75C10.1658 11.75 10.3247 11.6842 10.4419 11.5669C10.5592 11.4497 10.625 11.2908 10.625 11.125C10.625 10.9592 10.5592 10.8003 10.4419 10.6831C10.3247 10.5658 10.1658 10.5 10 10.5C9.83424 10.5 9.67527 10.5658 9.55806 10.6831C9.44085 10.8003 9.375 10.9592 9.375 11.125C9.375 11.2908 9.44085 11.4497 9.55806 11.5669C9.67527 11.6842 9.83424 11.75 10 11.75Z" fill="#132235"/>
<path d="M2.5 15.8333V13.5033C2.68985 13.6072 2.88872 13.6937 3.09417 13.7617C5.32141 14.5011 7.65321 14.8771 10 14.875C12.41 14.875 14.7333 14.485 16.9058 13.7625C17.1158 13.6925 17.3142 13.605 17.5 13.5033V15.8333C17.5 17.0433 16.6275 18.1067 15.3975 18.2692C13.6308 18.5042 11.8292 18.625 10 18.625C8.19496 18.6253 6.39187 18.5065 4.6025 18.2692C3.3725 18.1067 2.5 17.0433 2.5 15.8333Z" fill="#132235"/>
</svg>
