<svg width="41" height="40" viewBox="0 0 41 40" fill="none" xmlns="http://www.w3.org/2000/svg">
<path fill-rule="evenodd" clip-rule="evenodd" d="M20.5002 2.08337C13.3889 2.08337 7.5835 7.74609 7.5835 14.781C7.5835 18.5732 9.34155 21.3969 11.4761 23.7899C12.4652 24.8987 13.5633 25.9455 14.6206 26.9534L14.8446 27.167C15.9855 28.2555 17.0726 29.3062 18.0212 30.4199C19.2885 31.908 21.7068 31.959 23.0152 30.472C23.9748 29.3814 25.0573 28.3375 26.1862 27.249L26.2282 27.2085C27.3578 26.1194 28.5323 24.9847 29.5825 23.7772C31.6928 21.3509 33.4168 18.501 33.4168 14.781C33.4168 7.74609 27.6113 2.08337 20.5002 2.08337ZM20.5002 10C17.7387 10 15.5002 12.2386 15.5002 15C15.5002 17.7615 17.7387 20 20.5002 20C23.2617 20 25.5002 17.7615 25.5002 15C25.5002 12.2386 23.2617 10 20.5002 10Z" fill="url(#paint0_linear_40_4762)"/>
<path fill-rule="evenodd" clip-rule="evenodd" d="M11.2041 29.3569C11.5595 30.206 11.1593 31.1824 10.3102 31.5379C9.71902 31.7854 9.30502 32.098 9.06095 32.367C8.96898 32.4684 8.91325 32.5487 8.87973 32.6057C8.93407 32.664 9.02672 32.7489 9.1807 32.8584C9.64822 33.191 10.4327 33.559 11.5522 33.8959C13.77 34.5634 16.9339 35.0005 20.5 35.0005C24.066 35.0005 27.23 34.5634 29.4478 33.8959C30.5673 33.559 31.3518 33.191 31.8193 32.8584C31.9733 32.7489 32.066 32.664 32.1203 32.6057C32.0867 32.5487 32.031 32.4684 31.939 32.367C31.695 32.098 31.281 31.7854 30.6898 31.5379C29.8407 31.1824 29.4405 30.206 29.796 29.3569C30.1513 28.5079 31.1278 28.1077 31.9768 28.463C32.9592 28.8742 33.795 29.452 34.4077 30.1272C34.9938 30.7732 35.5 31.6544 35.5 32.6545C35.5 34.0142 34.5912 34.9772 33.7518 35.5744C32.8698 36.2019 31.7018 36.6985 30.4083 37.0879C27.8005 37.8727 24.2978 38.3339 20.5 38.3339C16.7022 38.3339 13.1995 37.8727 10.5916 37.0879C9.29823 36.6985 8.13012 36.2019 7.24823 35.5744C6.40877 34.9772 5.5 34.0142 5.5 32.6545C5.5 31.6544 6.00612 30.7732 6.59233 30.1272C7.20492 29.452 8.0409 28.8742 9.0231 28.463C9.8722 28.1077 10.8486 28.5079 11.2041 29.3569Z" fill="url(#paint1_linear_40_4762)"/>
<defs>
<linearGradient id="paint0_linear_40_4762" x1="7.5835" y1="2.08337" x2="35.5527" y2="4.27246" gradientUnits="userSpaceOnUse">
<stop stop-color="#09B5FF"/>
<stop offset="0.536667" stop-color="#4F81FF"/>
<stop offset="1" stop-color="#0048FF"/>
</linearGradient>
<linearGradient id="paint1_linear_40_4762" x1="5.5" y1="28.3334" x2="35.9907" y2="36.5025" gradientUnits="userSpaceOnUse">
<stop stop-color="#09B5FF"/>
<stop offset="0.536667" stop-color="#4F81FF"/>
<stop offset="1" stop-color="#0048FF"/>
</linearGradient>
</defs>
</svg>
