<svg width="36" height="36" viewBox="0 0 36 36" fill="none" xmlns="http://www.w3.org/2000/svg">
<rect width="36" height="36" rx="18" fill="#1A1F0A"/>
<path fill-rule="evenodd" clip-rule="evenodd" d="M18.0347 11.125C15.3145 11.1102 13.0116 13.4298 13.0154 16.1241L13.0154 16.125L13.0154 16.75C13.0154 19.6348 12.4105 21.3721 11.8301 22.375H24.1694C23.589 21.3721 22.9841 19.6348 22.9841 16.75V16.1953C22.9841 13.4259 20.7736 11.1461 18.0347 11.125ZM11.7654 16.1254C11.7609 12.7417 14.6239 9.85599 18.0423 9.87501L18.0436 9.87502C21.4919 9.90114 24.2341 12.7618 24.2341 16.1953V16.75C24.2341 19.4583 24.8009 20.9709 25.2516 21.7494L25.252 21.75C25.3615 21.9397 25.4192 22.1548 25.4194 22.3739C25.4196 22.5929 25.3622 22.8082 25.2531 22.9981C25.1439 23.188 24.9867 23.3459 24.7973 23.4559C24.6079 23.5659 24.3929 23.6242 24.1738 23.625L24.1716 23.625H11.8279L11.8257 23.625C11.6066 23.6242 11.3916 23.5659 11.2022 23.4559C11.0128 23.3459 10.8556 23.188 10.7464 22.9981C10.6373 22.8082 10.5799 22.5929 10.5801 22.3739C10.5803 22.1548 10.638 21.9397 10.7476 21.75L10.7479 21.7494C11.1986 20.9709 11.7654 19.4583 11.7654 16.75V16.1254Z" fill="white"/>
<path fill-rule="evenodd" clip-rule="evenodd" d="M15.4998 22.375C15.8449 22.375 16.1248 22.6548 16.1248 23V23.625C16.1248 24.1223 16.3223 24.5992 16.6739 24.9508C17.0256 25.3025 17.5025 25.5 17.9998 25.5C18.497 25.5 18.9739 25.3025 19.3256 24.9508C19.6772 24.5992 19.8748 24.1223 19.8748 23.625V23C19.8748 22.6548 20.1546 22.375 20.4998 22.375C20.8449 22.375 21.1248 22.6548 21.1248 23V23.625C21.1248 24.4538 20.7955 25.2487 20.2095 25.8347C19.6234 26.4208 18.8286 26.75 17.9998 26.75C17.1709 26.75 16.3761 26.4208 15.79 25.8347C15.204 25.2487 14.8748 24.4538 14.8748 23.625V23C14.8748 22.6548 15.1546 22.375 15.4998 22.375Z" fill="white"/>
<rect x="20" y="8" width="8" height="8" rx="4" fill="#F97068"/>
</svg>
