<svg width="16" height="16" viewBox="0 0 16 16" fill="none" xmlns="http://www.w3.org/2000/svg">
<path d="M9.52585 5.53501L3.92585 11.035C3.7856 11.1728 3.59685 11.25 3.40023 11.25C3.20361 11.25 3.01486 11.1728 2.8746 11.035L0.474602 8.67814C0.404304 8.60911 0.34829 8.52692 0.309758 8.43624C0.271226 8.34557 0.250931 8.24819 0.250031 8.14968C0.248215 7.95071 0.325511 7.75917 0.464915 7.6172C0.533941 7.5469 0.616137 7.49089 0.706811 7.45236C0.797485 7.41382 0.89486 7.39353 0.993377 7.39263C1.19234 7.39081 1.38388 7.46811 1.52585 7.60751L3.40085 9.44876L8.47523 4.46501C8.61712 4.32561 8.80858 4.24828 9.00748 4.25004C9.20639 4.2518 9.39645 4.3325 9.53585 4.47439C9.67526 4.61628 9.75259 4.80774 9.75083 5.00664C9.74907 5.20555 9.66837 5.39561 9.52648 5.53501H9.52585ZM15.5352 4.47251C15.4662 4.40197 15.3839 4.34576 15.293 4.3071C15.2022 4.26844 15.1046 4.24809 15.0059 4.24722C14.9072 4.24635 14.8093 4.26498 14.7178 4.30203C14.6263 4.33908 14.543 4.39383 14.4727 4.46314L9.40023 9.44876L8.90773 8.96501C8.76584 8.82561 8.57438 8.74828 8.37547 8.75004C8.17657 8.7518 7.98651 8.8325 7.8471 8.97439C7.7077 9.11628 7.63037 9.30774 7.63213 9.50664C7.63389 9.70555 7.71459 9.89561 7.85648 10.035L8.8746 11.035C9.01486 11.1728 9.20361 11.25 9.40023 11.25C9.59685 11.25 9.7856 11.1728 9.92585 11.035L15.5259 5.53501C15.5961 5.46599 15.6521 5.3838 15.6906 5.29314C15.7291 5.20248 15.7493 5.10513 15.7502 5.00664C15.7511 4.90815 15.7325 4.81046 15.6957 4.71913C15.6588 4.62781 15.6043 4.54464 15.5352 4.47439V4.47251Z" fill="#475569"/>
</svg>
